<?xml version="1.0" encoding="UTF-8"?>
<svg id="Layer_1" xmlns="http://www.w3.org/2000/svg" version="1.1" viewBox="0 0 450 155.7">
  <!-- Generator: Adobe Illustrator 29.4.0, SVG Export Plug-In . SVG Version: 2.1.0 Build 152)  -->
  <defs>
    <style>
      .st0 {
        fill: #fff;
      }
    </style>
  </defs>
  <g>
    <path class="st0" d="M29.9,84.6L0,3.1h23.4l19.1,55.2L60.9,3.1h23.6l-30.1,81.5h-24.5,0Z"/>
    <path class="st0" d="M127.8,1.5c5.2,0,9.6.8,12.9,2.5s6,3.5,7.8,5.5c1.8,1.9,2.9,3.3,3.3,4h1.2V3.1h23.4v81.5h-23.4v-10.5h-1.2c-.4.7-1.5,2.1-3.3,4s-4.4,3.8-7.8,5.5c-3.4,1.7-7.7,2.5-12.9,2.5s-11.3-1.2-15.8-3.6c-4.5-2.4-8.2-5.6-11.2-9.7-3-4.1-5.2-8.6-6.7-13.6-1.5-5-2.2-10.2-2.2-15.4s.7-10.3,2.2-15.4c1.5-5,3.7-9.6,6.7-13.6,3-4.1,6.7-7.3,11.2-9.7,4.5-2.4,9.7-3.6,15.8-3.6h0ZM134.6,20.4c-4.2,0-7.7,1.2-10.6,3.5-2.8,2.3-4.9,5.3-6.3,8.8-1.4,3.6-2.1,7.3-2.1,11.1s.7,7.5,2.1,11.1c1.4,3.6,3.5,6.5,6.3,8.8,2.8,2.3,6.4,3.5,10.6,3.5s7.7-1.1,10.6-3.5c2.8-2.3,4.9-5.2,6.3-8.8,1.4-3.6,2.1-7.3,2.1-11.1s-.7-7.5-2.1-11.1-3.5-6.5-6.3-8.8c-2.8-2.3-6.4-3.5-10.6-3.5Z"/>
    <path class="st0" d="M194.9,84.6V3.1h23.4v11.7h.8c.9-1.6,2.3-3.5,4.1-5.5,1.8-2.1,4.2-3.8,7.2-5.4,3-1.5,6.9-2.3,11.6-2.3s11.6,1.5,15.6,4.4,6.9,6.7,8.8,11.2,2.8,9.4,2.8,14.4v53.1h-23.4v-49.1c0-3.9-1.1-7.3-3.2-10.3-2.1-3-5.5-4.5-10.1-4.5s-6.3.8-8.3,2.5-3.5,3.7-4.5,6.3c-.9,2.6-1.4,5.3-1.4,8.2v46.9h-23.4Z"/>
  </g>
  <g>
    <path class="st0" d="M328.4,102.7c0,10.1-1.8,18.5-5.3,25.3-3.6,6.7-7.9,12.2-13,16.3-5.1,4.1-10.6,7.1-16.4,8.8-5.8,1.8-11,2.6-15.6,2.6-8.5,0-16.6-2-24.3-6-7.7-4-14.1-9.3-19.2-15.9l19.1-18.9c2.5,4,5.7,7.1,9.7,9.4,4,2.2,8.1,3.4,12.4,3.4s5.7-.5,8.4-1.6,5.2-2.6,7.4-4.6c2.2-2,3.9-4.4,5.2-7.3,1.3-2.9,2-6.2,2-9.9V3.2h29.6v99.5h0Z"/>
    <path class="st0" d="M450,113.5c0,5.6-1.2,11-3.7,16-2.4,5.1-5.8,9.5-10.2,13.4-4.4,3.9-9.5,7-15.5,9.3-6,2.3-12.6,3.5-19.9,3.5s-12.3-.4-17.5-1.1c-5.2-.8-10-1.9-14.6-3.6-4.6-1.6-8.9-3.7-13.1-6.3-4.2-2.6-8.5-5.6-13-9.3l20.6-20.8c6,5,11.9,8.5,17.6,10.6,5.7,2.1,12,3.1,18.7,3.1s5.3-.4,7.8-1.2c2.4-.8,4.6-1.9,6.4-3.3,1.8-1.4,3.2-3,4.3-4.9s1.6-3.9,1.6-6.2-.4-4.5-1.3-6.4-2.4-3.7-4.7-5.4-5.4-3.5-9.4-5.3-9.1-3.8-15.4-6.1c-5.5-2-10.8-4.3-15.8-6.8s-9.5-5.6-13.3-9.3c-3.8-3.6-6.9-7.9-9.2-12.7-2.3-4.9-3.5-10.6-3.5-17.2s1.3-12.2,3.8-17.6,6-10,10.5-13.8c4.4-3.8,9.6-6.8,15.5-8.9,5.9-2.1,12.3-3.2,19.2-3.2,11.5,0,21.2,1.5,29,4.5,7.9,3,14.9,7.4,21,13.1l-20.2,20.4c-3.8-3.6-7.9-6.4-12.5-8.3-4.6-1.9-10-2.9-16.3-2.9s-5.5.4-8,1.3c-2.4.9-4.5,2-6.3,3.5s-3.1,3.1-4.2,5.1c-1.1,1.9-1.6,4-1.6,6.1s.5,4.5,1.5,6.5c1,1.9,2.7,3.8,5.1,5.6,2.4,1.8,5.5,3.6,9.5,5.4s8.8,3.8,14.7,5.9c7.5,2.6,13.9,5.5,19.3,8.6s9.7,6.6,13.1,10.3c3.4,3.8,5.9,8,7.5,12.6s2.4,10,2.4,15.8h0Z"/>
  </g>
</svg>