<svg xmlns="http://www.w3.org/2000/svg" xml:space="preserve" width="800" height="800" viewBox="0 0 512.005 512.005"><path d="M511.513 223.904 452.508 42.326c-1.708-5.251-7.348-8.125-12.602-6.42L6.912 176.612c-5.252 1.707-8.126 7.349-6.42 12.602l27.93 85.949c-.008.168-.025.333-.025.503v190.925c0 5.522 4.478 10 10 10H493.68c5.522 0 10-4.478 10-10V275.666c0-5.522-4.478-10-10-10h-78.32l89.734-29.16c5.251-1.707 8.125-7.349 6.419-12.602m-27.834 61.762v170.925H48.396V285.666h55.392v111.408c0 5.522 4.478 10 10 10s10-4.478 10-10V285.666h359.891m-133.034-20H46.365l-23.762-73.123 52.711-17.129 20.162 61.276c1.385 4.208 5.296 6.877 9.497 6.877 1.036 0 2.09-.162 3.128-.504 5.246-1.727 8.1-7.378 6.373-12.625l-20.139-61.206L436.577 58.017l52.825 162.558z"/><path d="M421.405 101.849c-1.708-5.251-7.349-8.124-12.602-6.42l-260.728 84.727c-5.252 1.707-8.126 7.349-6.42 12.602a10.005 10.005 0 0 0 9.509 6.912c1.024 0 2.066-.159 3.093-.492l260.728-84.727c5.252-1.707 8.127-7.349 6.42-12.602M377.434 166.804l49.352-16.037c5.252-1.707 8.126-7.349 6.42-12.602-1.708-5.252-7.349-8.125-12.602-6.42l-49.352 16.037c-5.252 1.707-8.126 7.349-6.42 12.602a10.005 10.005 0 0 0 9.509 6.912c1.024 0 2.067-.159 3.093-.492M419.143 212.741a10.005 10.005 0 0 0 9.509 6.912 10 10 0 0 0 3.093-.492l15.617-5.075c5.252-1.707 8.127-7.349 6.42-12.602-1.708-5.252-7.348-8.126-12.602-6.42l-15.617 5.075c-5.252 1.707-8.127 7.349-6.42 12.602M390.685 211.473l-15.618 5.075c-5.252 1.707-8.127 7.349-6.42 12.602 1.373 4.226 5.293 6.912 9.509 6.912 1.023 0 2.065-.159 3.093-.492l15.618-5.075c5.252-1.707 8.126-7.349 6.42-12.602-1.706-5.252-7.343-8.125-12.602-6.42M251.132 186.817l-91.255 29.654c-5.252 1.707-8.127 7.349-6.42 12.602a10.005 10.005 0 0 0 9.509 6.912 10 10 0 0 0 3.093-.492l91.255-29.654c5.252-1.707 8.126-7.349 6.42-12.602-1.709-5.252-7.35-8.125-12.602-6.42M113.788 420.364c-5.522 0-10 4.478-10 10v3.916c0 5.522 4.478 10 10 10s10-4.478 10-10v-3.916c0-5.522-4.478-10-10-10M161.554 322.663c0 5.522 4.478 10 10 10h274.148c5.522 0 10-4.478 10-10s-4.478-10-10-10H171.554c-5.522 0-10 4.477-10 10M445.703 350.847H393.81c-5.522 0-10 4.478-10 10s4.478 10 10 10h51.893c5.522 0 10-4.478 10-10s-4.478-10-10-10M445.703 417.427h-16.422c-5.522 0-10 4.478-10 10s4.478 10 10 10h16.422c5.522 0 10-4.478 10-10s-4.478-10-10-10M392.608 417.427h-16.421c-5.522 0-10 4.478-10 10s4.478 10 10 10h16.421c5.522 0 10-4.478 10-10s-4.477-10-10-10M267.507 350.847h-95.952c-5.522 0-10 4.478-10 10s4.478 10 10 10h95.952c5.522 0 10-4.478 10-10s-4.478-10-10-10"/></svg>